<mxfile modified="2021-12-10T15:12:15.676Z" host="app.diagrams.net" agent="5.0 (Macintosh)" etag="9Wng-gskiCUOBUYpJzzt" version="14.7.9" type="github">
  <diagram id="Ht1M8jgEwFfnCIfOTk4-" name="Page-1">
    <mxGraphModel dx="815" dy="406" grid="1" gridSize="10" guides="1" tooltips="1" connect="1" arrows="1" fold="1" page="1" pageScale="1" pageWidth="1169" pageHeight="827" math="0" shadow="0">
      <root>
        <mxCell id="0" />
        <mxCell id="1" parent="0" />
        <mxCell id="FqP7iUfW-RrtiVTPv17M-3" value="Region" style="points=[[0,0],[0.25,0],[0.5,0],[0.75,0],[1,0],[1,0.25],[1,0.5],[1,0.75],[1,1],[0.75,1],[0.5,1],[0.25,1],[0,1],[0,0.75],[0,0.5],[0,0.25]];outlineConnect=0;gradientColor=none;html=1;whiteSpace=wrap;fontSize=12;fontStyle=0;shape=mxgraph.aws4.group;grIcon=mxgraph.aws4.group_region;strokeColor=#147EBA;fillColor=none;verticalAlign=top;align=left;spacingLeft=30;fontColor=#147EBA;dashed=1;" vertex="1" parent="1">
          <mxGeometry x="280" y="109" width="670" height="540" as="geometry" />
        </mxCell>
        <mxCell id="UEzPUAAOIrF-is8g5C7q-74" value="AWS Cloud" style="points=[[0,0],[0.25,0],[0.5,0],[0.75,0],[1,0],[1,0.25],[1,0.5],[1,0.75],[1,1],[0.75,1],[0.5,1],[0.25,1],[0,1],[0,0.75],[0,0.5],[0,0.25]];outlineConnect=0;gradientColor=none;html=1;whiteSpace=wrap;fontSize=12;fontStyle=0;shape=mxgraph.aws4.group;grIcon=mxgraph.aws4.group_aws_cloud_alt;strokeColor=#232F3E;fillColor=none;verticalAlign=top;align=left;spacingLeft=30;fontColor=#232F3E;dashed=0;labelBackgroundColor=#ffffff;" parent="1" vertex="1">
          <mxGeometry x="240" y="50" width="780" height="650" as="geometry" />
        </mxCell>
        <mxCell id="FqP7iUfW-RrtiVTPv17M-4" style="edgeStyle=orthogonalEdgeStyle;rounded=0;orthogonalLoop=1;jettySize=auto;html=1;" edge="1" parent="1" source="FqP7iUfW-RrtiVTPv17M-1" target="FqP7iUfW-RrtiVTPv17M-2">
          <mxGeometry relative="1" as="geometry" />
        </mxCell>
        <mxCell id="FqP7iUfW-RrtiVTPv17M-6" value="HTTPS / REST" style="edgeLabel;html=1;align=center;verticalAlign=middle;resizable=0;points=[];" vertex="1" connectable="0" parent="FqP7iUfW-RrtiVTPv17M-4">
          <mxGeometry x="-0.3568" y="-1" relative="1" as="geometry">
            <mxPoint x="-10" y="10" as="offset" />
          </mxGeometry>
        </mxCell>
        <mxCell id="FqP7iUfW-RrtiVTPv17M-1" value="" style="outlineConnect=0;fontColor=#232F3E;gradientColor=none;fillColor=#232F3E;strokeColor=none;dashed=0;verticalLabelPosition=bottom;verticalAlign=top;align=center;html=1;fontSize=12;fontStyle=0;aspect=fixed;pointerEvents=1;shape=mxgraph.aws4.users;" vertex="1" parent="1">
          <mxGeometry x="60" y="340" width="78" height="78" as="geometry" />
        </mxCell>
        <mxCell id="FqP7iUfW-RrtiVTPv17M-16" style="edgeStyle=orthogonalEdgeStyle;rounded=0;orthogonalLoop=1;jettySize=auto;html=1;entryX=0;entryY=0.5;entryDx=0;entryDy=0;entryPerimeter=0;dashed=1;" edge="1" parent="1" target="FqP7iUfW-RrtiVTPv17M-13">
          <mxGeometry relative="1" as="geometry">
            <mxPoint x="369" y="440" as="sourcePoint" />
            <Array as="points">
              <mxPoint x="369" y="591" />
            </Array>
          </mxGeometry>
        </mxCell>
        <mxCell id="FqP7iUfW-RrtiVTPv17M-17" style="edgeStyle=orthogonalEdgeStyle;rounded=0;orthogonalLoop=1;jettySize=auto;html=1;entryX=0;entryY=0.5;entryDx=0;entryDy=0;entryPerimeter=0;dashed=1;" edge="1" parent="1" target="FqP7iUfW-RrtiVTPv17M-12">
          <mxGeometry relative="1" as="geometry">
            <mxPoint x="410" y="390" as="sourcePoint" />
            <Array as="points">
              <mxPoint x="440" y="390" />
              <mxPoint x="440" y="481" />
            </Array>
          </mxGeometry>
        </mxCell>
        <mxCell id="FqP7iUfW-RrtiVTPv17M-18" style="edgeStyle=orthogonalEdgeStyle;rounded=0;orthogonalLoop=1;jettySize=auto;html=1;dashed=1;" edge="1" parent="1" target="FqP7iUfW-RrtiVTPv17M-11">
          <mxGeometry relative="1" as="geometry">
            <mxPoint x="410" y="371" as="sourcePoint" />
            <Array as="points">
              <mxPoint x="440" y="371" />
              <mxPoint x="440" y="371" />
            </Array>
          </mxGeometry>
        </mxCell>
        <mxCell id="FqP7iUfW-RrtiVTPv17M-19" style="edgeStyle=orthogonalEdgeStyle;rounded=0;orthogonalLoop=1;jettySize=auto;html=1;dashed=1;" edge="1" parent="1">
          <mxGeometry relative="1" as="geometry">
            <mxPoint x="390" y="340" as="sourcePoint" />
            <mxPoint x="554" y="261" as="targetPoint" />
            <Array as="points">
              <mxPoint x="390" y="261" />
            </Array>
          </mxGeometry>
        </mxCell>
        <mxCell id="FqP7iUfW-RrtiVTPv17M-2" value="API Gateway" style="points=[[0,0,0],[0.25,0,0],[0.5,0,0],[0.75,0,0],[1,0,0],[0,1,0],[0.25,1,0],[0.5,1,0],[0.75,1,0],[1,1,0],[0,0.25,0],[0,0.5,0],[0,0.75,0],[1,0.25,0],[1,0.5,0],[1,0.75,0]];outlineConnect=0;fontColor=#232F3E;gradientColor=#945DF2;gradientDirection=north;fillColor=#5A30B5;strokeColor=#ffffff;dashed=0;verticalLabelPosition=bottom;verticalAlign=top;align=center;html=1;fontSize=12;fontStyle=0;aspect=fixed;shape=mxgraph.aws4.resourceIcon;resIcon=mxgraph.aws4.api_gateway;" vertex="1" parent="1">
          <mxGeometry x="340" y="350" width="58" height="58" as="geometry" />
        </mxCell>
        <mxCell id="FqP7iUfW-RrtiVTPv17M-39" style="edgeStyle=orthogonalEdgeStyle;rounded=0;orthogonalLoop=1;jettySize=auto;html=1;dashed=1;" edge="1" parent="1" source="FqP7iUfW-RrtiVTPv17M-5">
          <mxGeometry relative="1" as="geometry">
            <mxPoint x="839" y="350" as="targetPoint" />
          </mxGeometry>
        </mxCell>
        <mxCell id="FqP7iUfW-RrtiVTPv17M-5" value="Lambda UpdateBook" style="points=[[0,0,0],[0.25,0,0],[0.5,0,0],[0.75,0,0],[1,0,0],[0,1,0],[0.25,1,0],[0.5,1,0],[0.75,1,0],[1,1,0],[0,0.25,0],[0,0.5,0],[0,0.75,0],[1,0.25,0],[1,0.5,0],[1,0.75,0]];outlineConnect=0;fontColor=#232F3E;gradientColor=#F78E04;gradientDirection=north;fillColor=#D05C17;strokeColor=#ffffff;dashed=0;verticalLabelPosition=bottom;verticalAlign=top;align=center;html=1;fontSize=12;fontStyle=0;aspect=fixed;shape=mxgraph.aws4.resourceIcon;resIcon=mxgraph.aws4.lambda;" vertex="1" parent="1">
          <mxGeometry x="554" y="230" width="62" height="62" as="geometry" />
        </mxCell>
        <mxCell id="FqP7iUfW-RrtiVTPv17M-38" style="edgeStyle=orthogonalEdgeStyle;rounded=0;orthogonalLoop=1;jettySize=auto;html=1;dashed=1;" edge="1" parent="1" source="FqP7iUfW-RrtiVTPv17M-10">
          <mxGeometry relative="1" as="geometry">
            <mxPoint x="854" y="350" as="targetPoint" />
          </mxGeometry>
        </mxCell>
        <mxCell id="FqP7iUfW-RrtiVTPv17M-10" value="Lambda GetBook" style="points=[[0,0,0],[0.25,0,0],[0.5,0,0],[0.75,0,0],[1,0,0],[0,1,0],[0.25,1,0],[0.5,1,0],[0.75,1,0],[1,1,0],[0,0.25,0],[0,0.5,0],[0,0.75,0],[1,0.25,0],[1,0.5,0],[1,0.75,0]];outlineConnect=0;fontColor=#232F3E;gradientColor=#F78E04;gradientDirection=north;fillColor=#D05C17;strokeColor=#ffffff;dashed=0;verticalLabelPosition=bottom;verticalAlign=top;align=center;html=1;fontSize=12;fontStyle=0;aspect=fixed;shape=mxgraph.aws4.resourceIcon;resIcon=mxgraph.aws4.lambda;" vertex="1" parent="1">
          <mxGeometry x="554" y="120" width="62" height="62" as="geometry" />
        </mxCell>
        <mxCell id="FqP7iUfW-RrtiVTPv17M-32" style="edgeStyle=orthogonalEdgeStyle;rounded=0;orthogonalLoop=1;jettySize=auto;html=1;dashed=1;" edge="1" parent="1" source="FqP7iUfW-RrtiVTPv17M-11">
          <mxGeometry relative="1" as="geometry">
            <mxPoint x="800" y="385" as="targetPoint" />
          </mxGeometry>
        </mxCell>
        <mxCell id="FqP7iUfW-RrtiVTPv17M-11" value="Lambda CreateBook" style="points=[[0,0,0],[0.25,0,0],[0.5,0,0],[0.75,0,0],[1,0,0],[0,1,0],[0.25,1,0],[0.5,1,0],[0.75,1,0],[1,1,0],[0,0.25,0],[0,0.5,0],[0,0.75,0],[1,0.25,0],[1,0.5,0],[1,0.75,0]];outlineConnect=0;fontColor=#232F3E;gradientColor=#F78E04;gradientDirection=north;fillColor=#D05C17;strokeColor=#ffffff;dashed=0;verticalLabelPosition=bottom;verticalAlign=top;align=center;html=1;fontSize=12;fontStyle=0;aspect=fixed;shape=mxgraph.aws4.resourceIcon;resIcon=mxgraph.aws4.lambda;" vertex="1" parent="1">
          <mxGeometry x="554" y="340" width="62" height="62" as="geometry" />
        </mxCell>
        <mxCell id="FqP7iUfW-RrtiVTPv17M-30" style="edgeStyle=orthogonalEdgeStyle;rounded=0;orthogonalLoop=1;jettySize=auto;html=1;dashed=1;" edge="1" parent="1" source="FqP7iUfW-RrtiVTPv17M-12">
          <mxGeometry relative="1" as="geometry">
            <mxPoint x="800" y="400" as="targetPoint" />
            <Array as="points">
              <mxPoint x="720" y="481" />
              <mxPoint x="720" y="399" />
            </Array>
          </mxGeometry>
        </mxCell>
        <mxCell id="FqP7iUfW-RrtiVTPv17M-12" value="Lambda ListBooks" style="points=[[0,0,0],[0.25,0,0],[0.5,0,0],[0.75,0,0],[1,0,0],[0,1,0],[0.25,1,0],[0.5,1,0],[0.75,1,0],[1,1,0],[0,0.25,0],[0,0.5,0],[0,0.75,0],[1,0.25,0],[1,0.5,0],[1,0.75,0]];outlineConnect=0;fontColor=#232F3E;gradientColor=#F78E04;gradientDirection=north;fillColor=#D05C17;strokeColor=#ffffff;dashed=0;verticalLabelPosition=bottom;verticalAlign=top;align=center;html=1;fontSize=12;fontStyle=0;aspect=fixed;shape=mxgraph.aws4.resourceIcon;resIcon=mxgraph.aws4.lambda;" vertex="1" parent="1">
          <mxGeometry x="554" y="450" width="62" height="62" as="geometry" />
        </mxCell>
        <mxCell id="FqP7iUfW-RrtiVTPv17M-31" style="edgeStyle=orthogonalEdgeStyle;rounded=0;orthogonalLoop=1;jettySize=auto;html=1;dashed=1;" edge="1" parent="1" source="FqP7iUfW-RrtiVTPv17M-13">
          <mxGeometry relative="1" as="geometry">
            <mxPoint x="839" y="460" as="targetPoint" />
          </mxGeometry>
        </mxCell>
        <mxCell id="FqP7iUfW-RrtiVTPv17M-13" value="Lambda DeleteBooks" style="points=[[0,0,0],[0.25,0,0],[0.5,0,0],[0.75,0,0],[1,0,0],[0,1,0],[0.25,1,0],[0.5,1,0],[0.75,1,0],[1,1,0],[0,0.25,0],[0,0.5,0],[0,0.75,0],[1,0.25,0],[1,0.5,0],[1,0.75,0]];outlineConnect=0;fontColor=#232F3E;gradientColor=#F78E04;gradientDirection=north;fillColor=#D05C17;strokeColor=#ffffff;dashed=0;verticalLabelPosition=bottom;verticalAlign=top;align=center;html=1;fontSize=12;fontStyle=0;aspect=fixed;shape=mxgraph.aws4.resourceIcon;resIcon=mxgraph.aws4.lambda;" vertex="1" parent="1">
          <mxGeometry x="554" y="560" width="62" height="62" as="geometry" />
        </mxCell>
        <mxCell id="FqP7iUfW-RrtiVTPv17M-20" value="GET" style="text;html=1;align=center;verticalAlign=middle;resizable=0;points=[];autosize=1;strokeColor=none;" vertex="1" parent="1">
          <mxGeometry x="420" y="150" width="40" height="20" as="geometry" />
        </mxCell>
        <mxCell id="FqP7iUfW-RrtiVTPv17M-21" style="edgeStyle=orthogonalEdgeStyle;rounded=0;orthogonalLoop=1;jettySize=auto;html=1;dashed=1;entryX=0;entryY=0.5;entryDx=0;entryDy=0;entryPerimeter=0;" edge="1" parent="1" target="FqP7iUfW-RrtiVTPv17M-10">
          <mxGeometry relative="1" as="geometry">
            <mxPoint x="370" y="340" as="sourcePoint" />
            <mxPoint x="564" y="271" as="targetPoint" />
            <Array as="points">
              <mxPoint x="370" y="151" />
            </Array>
          </mxGeometry>
        </mxCell>
        <mxCell id="FqP7iUfW-RrtiVTPv17M-23" value="PATCH" style="text;html=1;align=center;verticalAlign=middle;resizable=0;points=[];autosize=1;strokeColor=none;" vertex="1" parent="1">
          <mxGeometry x="415" y="272" width="50" height="20" as="geometry" />
        </mxCell>
        <mxCell id="FqP7iUfW-RrtiVTPv17M-24" value="PUT" style="text;html=1;align=center;verticalAlign=middle;resizable=0;points=[];autosize=1;strokeColor=none;" vertex="1" parent="1">
          <mxGeometry x="465" y="382" width="40" height="20" as="geometry" />
        </mxCell>
        <mxCell id="FqP7iUfW-RrtiVTPv17M-25" value="GET" style="text;html=1;align=center;verticalAlign=middle;resizable=0;points=[];autosize=1;strokeColor=none;" vertex="1" parent="1">
          <mxGeometry x="440" y="492" width="40" height="20" as="geometry" />
        </mxCell>
        <mxCell id="FqP7iUfW-RrtiVTPv17M-26" value="DELETE" style="text;html=1;align=center;verticalAlign=middle;resizable=0;points=[];autosize=1;strokeColor=none;" vertex="1" parent="1">
          <mxGeometry x="380" y="602" width="60" height="20" as="geometry" />
        </mxCell>
        <mxCell id="FqP7iUfW-RrtiVTPv17M-27" value="DynamoDB &lt;br&gt;Table" style="points=[[0,0,0],[0.25,0,0],[0.5,0,0],[0.75,0,0],[1,0,0],[0,1,0],[0.25,1,0],[0.5,1,0],[0.75,1,0],[1,1,0],[0,0.25,0],[0,0.5,0],[0,0.75,0],[1,0.25,0],[1,0.5,0],[1,0.75,0]];outlineConnect=0;fontColor=#232F3E;gradientColor=#4D72F3;gradientDirection=north;fillColor=#3334B9;strokeColor=#ffffff;dashed=0;verticalLabelPosition=bottom;verticalAlign=top;align=center;html=1;fontSize=12;fontStyle=0;aspect=fixed;shape=mxgraph.aws4.resourceIcon;resIcon=mxgraph.aws4.dynamodb;" vertex="1" parent="1">
          <mxGeometry x="810" y="356" width="58" height="58" as="geometry" />
        </mxCell>
        <mxCell id="FqP7iUfW-RrtiVTPv17M-33" value="patch" style="text;html=1;align=center;verticalAlign=middle;resizable=0;points=[];autosize=1;strokeColor=none;" vertex="1" parent="1">
          <mxGeometry x="660" y="260" width="40" height="20" as="geometry" />
        </mxCell>
        <mxCell id="FqP7iUfW-RrtiVTPv17M-34" value="put" style="text;html=1;align=center;verticalAlign=middle;resizable=0;points=[];autosize=1;strokeColor=none;" vertex="1" parent="1">
          <mxGeometry x="665" y="375" width="30" height="20" as="geometry" />
        </mxCell>
        <mxCell id="FqP7iUfW-RrtiVTPv17M-36" value="get" style="text;html=1;align=center;verticalAlign=middle;resizable=0;points=[];autosize=1;strokeColor=none;" vertex="1" parent="1">
          <mxGeometry x="665" y="490" width="30" height="20" as="geometry" />
        </mxCell>
        <mxCell id="FqP7iUfW-RrtiVTPv17M-37" value="delete" style="text;html=1;align=center;verticalAlign=middle;resizable=0;points=[];autosize=1;strokeColor=none;" vertex="1" parent="1">
          <mxGeometry x="655" y="602" width="50" height="20" as="geometry" />
        </mxCell>
      </root>
    </mxGraphModel>
  </diagram>
</mxfile>
